<?xml version="1.0" encoding="UTF-8"?><svg id="Layer_1" xmlns="http://www.w3.org/2000/svg" xmlns:xlink="http://www.w3.org/1999/xlink" viewBox="0 0 605.48 188.87"><defs><style>.cls-1{fill:url(#New_Gradient_Swatch_14);}.cls-2{fill:#fff;}</style><linearGradient id="New_Gradient_Swatch_14" x1="12319.38" y1="-3478.66" x2="12508.25" y2="-3478.66" gradientTransform="translate(11332.11 6412.54) rotate(-135)" gradientUnits="userSpaceOnUse"><stop offset="0" stop-color="#1fd4b2"/><stop offset="1" stop-color="#8cff4a"/></linearGradient></defs><g><circle class="cls-1" cx="94.43" cy="94.43" r="94.43"/><path class="cls-2" d="M73.89,155.84c-15.58,.01-28.26-12.66-28.24-28.24,.01-15.71,13.36-28.19,29.07-28.19h12.08s0-9.94,0-9.94h-20.23c-2.43,0-4.4-1.97-4.4-4.4v-6.49c0-2.43,1.97-4.4,4.4-4.4h20.23v-12.08c0-15.71,12.48-29.06,28.19-29.07,15.58-.01,28.26,12.66,28.24,28.24-.01,15.71-13.36,28.19-29.07,28.19h-12.08s0,9.94,0,9.94h19.84c2.43,0,4.4,1.97,4.4,4.4v6.49c0,2.43-1.97,4.4-4.4,4.4h-19.84v12.08c0,15.71-12.48,29.06-28.19,29.07Zm-.03-41.15c-7.13,0-12.93,5.8-12.93,12.93s5.8,12.93,12.93,12.93,12.93-5.8,12.93-12.93v-12.93h-12.93Zm28.22-40.52h12.93c7.13,0,12.93-5.8,12.93-12.93s-5.8-12.93-12.93-12.93-12.93,5.8-12.93,12.93v12.93Z"/></g><g><path class="cls-2" d="M265.67,122.99h28.87v16.59h-50.53V50.05h21.65V122.99Z"/><path class="cls-2" d="M340.6,71.71c3.88,2.45,6.75,5.78,8.61,10v-12.79h21.53v70.66h-21.53v-12.79c-1.86,4.22-4.73,7.56-8.61,10-3.89,2.45-8.53,3.67-13.93,3.67-5.83,0-11.04-1.46-15.64-4.37-4.6-2.91-8.23-7.11-10.89-12.6-2.66-5.49-3.99-11.9-3.99-19.25s1.33-13.87,3.99-19.31c2.66-5.45,6.29-9.62,10.89-12.54,4.6-2.91,9.81-4.37,15.64-4.37,5.4,0,10.05,1.23,13.93,3.67Zm-18.17,19.88c-2.83,3.04-4.24,7.26-4.24,12.66s1.41,9.62,4.24,12.66c2.83,3.04,6.56,4.56,11.21,4.56s8.29-1.56,11.21-4.69c2.91-3.12,4.37-7.3,4.37-12.54s-1.46-9.52-4.37-12.6c-2.91-3.08-6.65-4.62-11.21-4.62s-8.38,1.52-11.21,4.56Z"/><path class="cls-2" d="M413.15,118.43l15.32-49.51h23.05l-25.07,70.66h-26.85l-25.07-70.66h23.05l15.58,49.51Z"/><path class="cls-2" d="M456.82,40.87c2.36-2.15,5.49-3.23,9.37-3.23s7.01,1.08,9.37,3.23c2.36,2.15,3.55,4.88,3.55,8.17s-1.18,5.89-3.55,8.04c-2.36,2.15-5.49,3.23-9.37,3.23s-7.01-1.08-9.37-3.23c-2.37-2.15-3.55-4.83-3.55-8.04s1.18-6.02,3.55-8.17Zm20.13,28.05v70.66h-21.65V68.92h21.65Z"/><path class="cls-2" d="M527.29,120.97v18.61h-9.75c-8.28,0-14.71-2.05-19.31-6.14-4.6-4.09-6.9-10.87-6.9-20.32v-25.96h-9.5v-18.23h9.5v-17.35h21.65v17.35h14.18v18.23h-14.18v26.34c0,2.79,.57,4.73,1.71,5.83,1.14,1.1,3.06,1.65,5.76,1.65h6.84Z"/><path class="cls-2" d="M575.35,71.71c3.88,2.45,6.75,5.78,8.61,10v-12.79h21.53v70.66h-21.53v-12.79c-1.86,4.22-4.73,7.56-8.61,10-3.89,2.45-8.53,3.67-13.93,3.67-5.83,0-11.04-1.46-15.64-4.37-4.6-2.91-8.23-7.11-10.89-12.6-2.66-5.49-3.99-11.9-3.99-19.25s1.33-13.87,3.99-19.31c2.66-5.45,6.29-9.62,10.89-12.54,4.6-2.91,9.81-4.37,15.64-4.37,5.4,0,10.05,1.23,13.93,3.67Zm-18.17,19.88c-2.83,3.04-4.24,7.26-4.24,12.66s1.41,9.62,4.24,12.66c2.83,3.04,6.56,4.56,11.21,4.56s8.29-1.56,11.21-4.69c2.91-3.12,4.37-7.3,4.37-12.54s-1.46-9.52-4.37-12.6c-2.91-3.08-6.65-4.62-11.21-4.62s-8.38,1.52-11.21,4.56Z"/></g></svg>